<?xml version="1.0" encoding="UTF-8"?>
<svg xmlns="http://www.w3.org/2000/svg" version="1.1" width="100" height="100" viewBox="0 0 100 100"><rect x="0" y="0" width="100" height="100" fill="#ffffff"/><g transform="scale(3.448)"><g transform="translate(0,0)"><path fill-rule="evenodd" d="M10 0L10 2L11 2L11 0ZM12 0L12 1L13 1L13 0ZM16 0L16 1L14 1L14 3L13 3L13 2L12 2L12 4L15 4L15 3L16 3L16 5L14 5L14 8L12 8L12 7L13 7L13 5L11 5L11 6L10 6L10 4L11 4L11 3L8 3L8 4L9 4L9 5L8 5L8 7L9 7L9 8L6 8L6 9L10 9L10 11L11 11L11 12L9 12L9 10L8 10L8 12L9 12L9 13L11 13L11 14L10 14L10 15L11 15L11 14L12 14L12 16L13 16L13 15L14 15L14 17L11 17L11 16L8 16L8 15L7 15L7 14L8 14L8 13L7 13L7 12L6 12L6 11L7 11L7 10L5 10L5 8L0 8L0 9L3 9L3 10L2 10L2 11L0 11L0 12L1 12L1 14L0 14L0 15L1 15L1 16L0 16L0 21L1 21L1 17L2 17L2 18L3 18L3 21L7 21L7 20L8 20L8 23L9 23L9 22L10 22L10 24L8 24L8 29L10 29L10 28L12 28L12 29L13 29L13 27L10 27L10 26L13 26L13 24L11 24L11 22L13 22L13 23L14 23L14 22L13 22L13 21L11 21L11 18L12 18L12 20L13 20L13 19L14 19L14 21L15 21L15 20L17 20L17 21L16 21L16 22L15 22L15 24L14 24L14 27L16 27L16 28L17 28L17 29L20 29L20 28L21 28L21 29L23 29L23 28L26 28L26 29L27 29L27 28L28 28L28 26L29 26L29 25L28 25L28 23L27 23L27 22L29 22L29 20L28 20L28 19L27 19L27 16L28 16L28 15L27 15L27 14L25 14L25 13L27 13L27 12L28 12L28 11L27 11L27 12L26 12L26 11L25 11L25 13L22 13L22 14L25 14L25 15L27 15L27 16L25 16L25 17L24 17L24 19L22 19L22 18L23 18L23 17L21 17L21 16L22 16L22 15L21 15L21 14L20 14L20 12L23 12L23 11L24 11L24 10L25 10L25 9L26 9L26 8L25 8L25 9L24 9L24 8L23 8L23 9L22 9L22 8L21 8L21 4L20 4L20 3L21 3L21 1L20 1L20 0ZM8 1L8 2L9 2L9 1ZM18 1L18 2L16 2L16 3L18 3L18 4L17 4L17 8L16 8L16 6L15 6L15 10L14 10L14 9L13 9L13 10L12 10L12 9L11 9L11 8L10 8L10 9L11 9L11 11L13 11L13 12L11 12L11 13L13 13L13 12L14 12L14 14L16 14L16 16L18 16L18 17L20 17L20 14L19 14L19 16L18 16L18 15L17 15L17 14L18 14L18 13L19 13L19 11L21 11L21 10L19 10L19 8L20 8L20 9L21 9L21 8L20 8L20 5L19 5L19 3L20 3L20 1ZM18 5L18 8L17 8L17 9L16 9L16 10L15 10L15 11L14 11L14 10L13 10L13 11L14 11L14 12L17 12L17 13L16 13L16 14L17 14L17 13L18 13L18 12L17 12L17 11L16 11L16 10L17 10L17 9L18 9L18 8L19 8L19 5ZM9 6L9 7L10 7L10 6ZM11 6L11 7L12 7L12 6ZM27 8L27 9L28 9L28 10L29 10L29 9L28 9L28 8ZM4 10L4 11L3 11L3 12L2 12L2 14L1 14L1 15L4 15L4 16L3 16L3 18L4 18L4 19L5 19L5 17L6 17L6 18L9 18L9 17L8 17L8 16L7 16L7 15L6 15L6 14L7 14L7 13L6 13L6 12L5 12L5 10ZM22 10L22 11L23 11L23 10ZM3 12L3 14L4 14L4 15L5 15L5 16L6 16L6 17L7 17L7 16L6 16L6 15L5 15L5 13L4 13L4 12ZM28 13L28 14L29 14L29 13ZM23 15L23 16L24 16L24 15ZM14 17L14 19L15 19L15 18L16 18L16 17ZM25 17L25 21L26 21L26 20L27 20L27 19L26 19L26 17ZM28 17L28 18L29 18L29 17ZM17 18L17 20L18 20L18 21L19 21L19 22L20 22L20 19L21 19L21 20L22 20L22 19L21 19L21 18ZM6 19L6 20L7 20L7 19ZM8 19L8 20L9 20L9 21L10 21L10 22L11 22L11 21L10 21L10 20L9 20L9 19ZM18 19L18 20L19 20L19 19ZM21 21L21 24L24 24L24 21ZM17 22L17 24L16 24L16 25L15 25L15 26L16 26L16 25L17 25L17 26L18 26L18 25L20 25L20 27L17 27L17 28L20 28L20 27L21 27L21 28L22 28L22 27L21 27L21 25L20 25L20 24L19 24L19 23L18 23L18 22ZM22 22L22 23L23 23L23 22ZM25 23L25 25L22 25L22 26L25 26L25 25L26 25L26 24L27 24L27 23ZM10 24L10 25L9 25L9 26L10 26L10 25L11 25L11 24ZM17 24L17 25L18 25L18 24ZM27 25L27 26L28 26L28 25ZM9 27L9 28L10 28L10 27ZM26 27L26 28L27 28L27 27ZM14 28L14 29L15 29L15 28ZM0 0L0 7L7 7L7 0ZM1 1L1 6L6 6L6 1ZM2 2L2 5L5 5L5 2ZM22 0L22 7L29 7L29 0ZM23 1L23 6L28 6L28 1ZM24 2L24 5L27 5L27 2ZM0 22L0 29L7 29L7 22ZM1 23L1 28L6 28L6 23ZM2 24L2 27L5 27L5 24Z" fill="#000000"/></g></g></svg>
